<svg xmlns="http://www.w3.org/2000/svg" width="832.718" height="177.831" viewBox="0 0 832.718 177.831">
  <g id="Group_7478" data-name="Group 7478" transform="translate(-544.502 -451.593)">
    <path id="Path_15066" data-name="Path 15066" d="M160.155,30.4a12.347,12.347,0,0,1-2.125,7.164,16.808,16.808,0,0,1-4.952,4.864,64.719,64.719,0,0,0-9.994-5.3,32.6,32.6,0,0,0-12.826-2.3q-14.155,0-22.115,8.936t-7.959,25.385q0,16.984,8.4,25.563t23.088,8.58a36.945,36.945,0,0,0,13-2.034,58.322,58.322,0,0,0,10-4.864A16.391,16.391,0,0,1,159,101.781a15.86,15.86,0,0,1,1.682,7.341,12.658,12.658,0,0,1-1.859,6.633,14.071,14.071,0,0,1-6.455,5.22,48.277,48.277,0,0,1-9.554,3.273,62.5,62.5,0,0,1-14.858,1.5,70.614,70.614,0,0,1-22.115-3.36,48.8,48.8,0,0,1-17.865-10.262,47.187,47.187,0,0,1-11.94-17.6Q71.7,83.825,71.7,69.142a64.131,64.131,0,0,1,4.337-24.411A51.174,51.174,0,0,1,87.8,26.95a49.945,49.945,0,0,1,17.338-10.88,59.92,59.92,0,0,1,21.226-3.713q16.1,0,24.945,5.129T160.155,30.4" transform="translate(681.771 475.25)" fill="#092d61"/>
    <path id="Path_15067" data-name="Path 15067" d="M143.344,20.126a69.941,69.941,0,0,1,16.717,1.857,36.11,36.11,0,0,1,12.824,5.75,26.392,26.392,0,0,1,8.227,9.909,32.116,32.116,0,0,1,2.914,14.15v39.98a10.783,10.783,0,0,1-2.387,7.341,22.5,22.5,0,0,1-5.747,4.689,43.8,43.8,0,0,1-13.444,5.129A83.688,83.688,0,0,1,144.4,110.7q-18.221,0-29.013-6.989T104.6,82.4q0-12.206,7.251-18.574t22.29-7.962l23.528-2.477V51.439a8.917,8.917,0,0,0-4.6-8.315q-4.6-2.654-13.267-2.652a54.7,54.7,0,0,0-13.179,1.591,80.869,80.869,0,0,0-11.588,3.716,11.245,11.245,0,0,1-3.626-4.337,13.471,13.471,0,0,1-1.5-6.281q0-7.782,8.137-11.142a56.215,56.215,0,0,1,11.94-2.92,94.52,94.52,0,0,1,13.357-.973M144.4,90.711a37.475,37.475,0,0,0,7.694-.8,17.711,17.711,0,0,0,5.75-2.034V71.6l-14.5,1.239a21.975,21.975,0,0,0-9.111,2.568,6.631,6.631,0,0,0-3.451,6.1,8.066,8.066,0,0,0,3.18,6.721q3.191,2.479,10.439,2.477" transform="translate(744.756 490.124)" fill="#092d61"/>
    <path id="Path_15068" data-name="Path 15068" d="M208.463,83.043q0,13.093-9.734,20.433t-28.655,7.341a79.509,79.509,0,0,1-13.532-1.061,40.256,40.256,0,0,1-10.527-3.185,18.887,18.887,0,0,1-6.9-5.307,11.749,11.749,0,0,1-2.477-7.429,13.023,13.023,0,0,1,1.591-6.636A14.281,14.281,0,0,1,142.3,82.69,66.866,66.866,0,0,0,153.975,88a45.852,45.852,0,0,0,15.21,2.3q12.56,0,12.564-7.076a5.337,5.337,0,0,0-2.209-4.6q-2.221-1.587-7.519-2.83L164.942,74.2q-14.505-3.008-21.581-9.288t-7.076-17.6a23.275,23.275,0,0,1,10.174-19.9q10.168-7.34,27.329-7.341a71.21,71.21,0,0,1,12.031.973,37.225,37.225,0,0,1,9.728,2.92A18.419,18.419,0,0,1,202,28.823a10.424,10.424,0,0,1,2.393,6.811,13.484,13.484,0,0,1-1.419,6.281,13.3,13.3,0,0,1-3.71,4.512,25.748,25.748,0,0,0-4.162-1.947q-2.741-1.062-5.925-1.947a56.759,56.759,0,0,0-6.724-1.416,44.429,44.429,0,0,0-6.546-.528q-6.19,0-9.638,1.679t-3.451,5.042a4.538,4.538,0,0,0,1.947,3.891q1.941,1.416,7.079,2.655l6.721,1.591q16.1,3.541,23,10.262t6.9,17.335" transform="translate(805.408 490.006)" fill="#092d61"/>
    <path id="Path_15069" data-name="Path 15069" d="M214.32,41.531a23.356,23.356,0,0,0-16.277,6.1q-6.724,6.1-6.724,17.956t6.458,17.691q6.457,5.841,16.362,5.838a30.463,30.463,0,0,0,10-1.5,52.957,52.957,0,0,0,7.344-3.1,20.279,20.279,0,0,1,4.686,4.864,11.225,11.225,0,0,1,1.679,6.281q0,6.724-7.073,10.792t-19.637,4.069a62.849,62.849,0,0,1-19.369-2.83A40.057,40.057,0,0,1,176.817,99.2a37.634,37.634,0,0,1-9.554-14.065A52.369,52.369,0,0,1,163.9,65.589a49.514,49.514,0,0,1,3.719-19.99A40.147,40.147,0,0,1,177.7,31.45a42.134,42.134,0,0,1,14.858-8.493,56.176,56.176,0,0,1,17.868-2.83q12.206,0,19.194,4.421t6.986,11.145a11.657,11.657,0,0,1-1.5,5.838,18.783,18.783,0,0,1-3.626,4.6,43.108,43.108,0,0,0-7.519-3.185,31.027,31.027,0,0,0-9.641-1.416" transform="translate(858.277 490.125)" fill="#092d61"/>
    <path id="Path_15070" data-name="Path 15070" d="M230.625,20.126a69.924,69.924,0,0,1,16.717,1.857,36.063,36.063,0,0,1,12.824,5.75,26.391,26.391,0,0,1,8.227,9.909,32.075,32.075,0,0,1,2.92,14.15v39.98a10.784,10.784,0,0,1-2.39,7.341,22.516,22.516,0,0,1-5.75,4.689,43.74,43.74,0,0,1-13.444,5.129,83.642,83.642,0,0,1-18.043,1.769q-18.225,0-29.013-6.989T191.883,82.4q0-12.206,7.251-18.574t22.29-7.962l23.528-2.477V51.439a8.925,8.925,0,0,0-4.6-8.315q-4.6-2.654-13.267-2.652A54.728,54.728,0,0,0,213.9,42.063a80.94,80.94,0,0,0-11.585,3.716,11.17,11.17,0,0,1-3.626-4.337,13.475,13.475,0,0,1-1.507-6.281q0-7.782,8.14-11.142a56.215,56.215,0,0,1,11.94-2.92,94.582,94.582,0,0,1,13.357-.973m1.061,70.585a37.524,37.524,0,0,0,7.7-.8,17.742,17.742,0,0,0,5.747-2.034V71.6l-14.505,1.239a21.989,21.989,0,0,0-9.111,2.568,6.636,6.636,0,0,0-3.451,6.1,8.055,8.055,0,0,0,3.186,6.721q3.178,2.479,10.437,2.477" transform="translate(911.85 490.124)" fill="#092d61"/>
    <path id="Path_15071" data-name="Path 15071" d="M267.657,39.185a45.629,45.629,0,0,1,7.7.618,40.429,40.429,0,0,1,6.633,1.682V11.763q1.95-.529,5.132-1.061a43.33,43.33,0,0,1,7.076-.53q7.956,0,11.41,2.652t3.451,10.084v86.154a13.607,13.607,0,0,1-1.772,7.164,17.24,17.24,0,0,1-5.66,5.395,59.517,59.517,0,0,1-30.6,7.962q-22.291,0-35.113-11.235t-12.826-33.7q0-11.677,3.448-20.168a39.54,39.54,0,0,1,9.466-14.152,38.124,38.124,0,0,1,14.152-8.4,54.5,54.5,0,0,1,17.51-2.742m14.508,23.881a35.581,35.581,0,0,0-5.039-1.856,20.561,20.561,0,0,0-5.75-.8q-9.556,0-15.216,5.838T250.5,84.825q0,12.206,5.395,17.778t14.948,5.572a25.29,25.29,0,0,0,6.636-.8,18.67,18.67,0,0,0,4.686-1.859Z" transform="translate(971.576 471.067)" fill="#092d61"/>
    <path id="Path_15072" data-name="Path 15072" d="M283.658,76.558q2.479,7.432,8.67,10.524a31.592,31.592,0,0,0,14.327,3.1,46.776,46.776,0,0,0,13.975-2.037,47.99,47.99,0,0,0,10.617-4.509,15.059,15.059,0,0,1,4.421,4.6,11.506,11.506,0,0,1,1.769,6.19,10.785,10.785,0,0,1-2.477,7.076,19.148,19.148,0,0,1-6.811,5.042,39.15,39.15,0,0,1-10.259,3.008,80.736,80.736,0,0,1-13,.973,61.256,61.256,0,0,1-19.285-2.917,42.007,42.007,0,0,1-15.213-8.67,39.739,39.739,0,0,1-10-14.418,52.465,52.465,0,0,1-3.625-20.343,48.865,48.865,0,0,1,3.625-19.635,39.392,39.392,0,0,1,9.731-13.8,38.558,38.558,0,0,1,13.975-8.05,51.976,51.976,0,0,1,16.187-2.565,47.962,47.962,0,0,1,16.539,2.742,38.217,38.217,0,0,1,12.914,7.694,34.786,34.786,0,0,1,8.405,11.853,37.264,37.264,0,0,1,3,15.036q0,5.666-3,8.493a15.729,15.729,0,0,1-8.493,3.716Zm16.808-36.442A17.871,17.871,0,0,0,287.816,44.8q-5.041,4.691-5.928,13.535l33.79-5.485a14.391,14.391,0,0,0-4.072-8.668q-3.712-4.066-11.142-4.069" transform="translate(1036.068 490.124)" fill="#092d61"/>
    <path id="Path_15073" data-name="Path 15073" d="M144.807,26.277c-.07.07-.143.143-.216.213L129.107,41.72A61.565,61.565,0,0,0,94.9,27.2l.16-21.7a5.452,5.452,0,0,0-10.9-.1l-.187,21.718A61.74,61.74,0,0,0,49.516,41.059L34.286,25.577a5.45,5.45,0,1,0-8.1,7.3c.041.044.082.087.125.131.067.07.134.14.2.21L41.749,48.7A61.6,61.6,0,0,0,27.238,82.925L5.517,82.75a5.465,5.465,0,1,0-.1,10.929l21.721.178a61.6,61.6,0,0,0,13.957,34.449L25.609,143.536a5.455,5.455,0,1,0,7.525,7.9c.038-.035.076-.073.111-.108l15.5-15.243a61.643,61.643,0,0,0,34.215,14.528l-.181,21.718A5.463,5.463,0,0,0,93.7,172.4l.184-21.718a61.534,61.534,0,0,0,34.46-13.94l15.231,15.481a5.449,5.449,0,0,0,7.971-7.432c-.07-.07-.137-.14-.2-.207L136.113,129.1a61.761,61.761,0,0,0,14.508-34.227l21.721.166a5.45,5.45,0,1,0,.213-10.9h-.134l-21.7-.2A61.627,61.627,0,0,0,136.76,49.5l15.481-15.231a5.461,5.461,0,1,0-7.207-8.207c-.079.067-.154.14-.23.213" transform="translate(544.502 451.593)" fill="#b49253"/>
    <path id="Path_15074" data-name="Path 15074" d="M90.357,40.633a5.114,5.114,0,0,0-3.177,5.951A34.151,34.151,0,0,1,81.217,74.51L53.784,46.619l9.95-9.787a5.173,5.173,0,0,0-7.254-7.376l-9.953,9.79-8.37-8.51a10.075,10.075,0,1,0-7.374,7.254l8.37,8.51L29.32,56.17a5.174,5.174,0,0,0,7.257,7.376l9.83-9.67L73.841,81.764A34.146,34.146,0,0,1,46.1,87.331a5.115,5.115,0,0,0-5.96,3.089v0a5.108,5.108,0,0,0,3.626,6.823A44.317,44.317,0,0,0,97.113,44.34a5.113,5.113,0,0,0-6.756-3.707" transform="translate(579.617 486.31)" fill="#fff"/>
    <path id="Path_15075" data-name="Path 15075" d="M27.976,21.391a4.509,4.509,0,1,1-6.377-.052,4.513,4.513,0,0,1,6.377.052" transform="translate(583.271 489.966)" fill="#a87e3e"/>
    <rect id="Rectangle_3784" data-name="Rectangle 3784" width="832.718" height="177.83" transform="translate(544.502 451.594)" fill="none"/>
  </g>
</svg>
