<?xml version="1.0" encoding="UTF-8"?>
<svg id="Layer_1" data-name="Layer 1" xmlns="http://www.w3.org/2000/svg" viewBox="0 0 1080 1080">
  <defs>
    <style>
      .cls-1 {
        fill: #b49252;
      }

      .cls-2 {
        fill: #fff;
      }

      .cls-3 {
        fill: #a87e3d;
      }
    </style>
  </defs>
  <path id="Path_15073" data-name="Path 15073" class="cls-1" d="M876.19,163c-.42.42-.86.86-1.3,1.28l-93.1,91.58c-57.93-49.59-129.76-80.08-205.68-87.31l.96-130.48c-.3-18.1-15.21-32.54-33.31-32.24-17.45.28-31.62,14.2-32.23,31.64l-1.12,130.59c-76.03,6-148.37,35.26-207.19,83.83l-91.58-93.09c-12.12-13.45-32.85-14.53-46.3-2.41-13.45,12.12-14.53,32.85-2.41,46.3h0c.25.26.49.52.75.79.4.42.81.84,1.2,1.26l91.62,93.09c-49.58,57.97-80.05,129.84-87.25,205.79l-130.61-1.05c-18.14-.35-33.14,14.08-33.48,32.23-.35,18.14,14.08,33.14,32.23,33.48.22,0,.44,0,.65,0l130.61,1.07c5.98,76.04,35.29,148.38,83.92,207.14l-93.12,91.58c-13.12,12.49-13.62,33.26-1.13,46.37,12.49,13.12,33.26,13.62,46.37,1.13h0c.23-.21.46-.44.67-.65l93.2-91.65c57.95,49.59,129.8,80.1,205.73,87.35l-1.09,130.59c.42,18.14,15.47,32.5,33.6,32.07,17.38-.4,31.44-14.28,32.06-31.66l1.11-130.59c76.06-5.91,148.43-35.19,207.2-83.82l91.58,93.09c12.34,13.24,33.07,13.96,46.31,1.62,13.24-12.34,13.96-33.07,1.62-46.31-.42-.42-.82-.84-1.2-1.24l-91.59-93.1c49.52-58.01,79.98-129.87,87.23-205.8l130.61,1c18.1.35,33.06-14.03,33.41-32.13.35-18.1-14.03-33.06-32.13-33.41h-.81l-130.48-1.2c-6.01-76.02-35.32-148.33-83.95-207.08l93.09-91.58c13.63-11.97,14.97-32.71,3.01-46.34-11.97-13.63-32.71-14.97-46.34-3.01h0c-.47.4-.93.84-1.38,1.28"/>
  <path id="Path_15074" data-name="Path 15074" class="cls-2" d="M759.93,458.07c-14.45,5.44-22.62,20.75-19.1,35.78,13.15,58.52.05,119.87-35.85,167.92l-164.95-167.7,59.83-58.85c12.11-12.18,12.05-31.88-.13-43.99-11.99-11.92-31.3-12.08-43.48-.36l-59.85,58.87-50.33-51.17c8.42-32.38-11-65.46-43.37-73.88-32.38-8.42-65.46,11-73.88,43.37-8.42,32.38,11,65.46,43.37,73.88,9.68,2.52,19.83,2.6,29.54.24l50.33,51.17-59.12,58.14c-12.12,12.18-12.08,31.88.1,44,12,11.94,31.34,12.1,43.53.35l59.11-58.14,164.96,167.69c-48.14,34.75-108.98,46.96-166.8,33.47-14.91-3.61-30.19,4.31-35.84,18.57h0c-6.12,15.82,1.74,33.61,17.56,39.73,1.38.53,2.8.97,4.24,1.3,143.28,33.6,286.67-55.32,320.27-198.6,9.21-39.28,9.38-80.14.5-119.5-3.63-16.59-20.02-27.09-36.61-23.46-1.36.3-2.71.69-4.02,1.17"/>
  <path id="Path_15075" data-name="Path 15075" class="cls-3" d="M406.81,364.35c10.5,10.67,10.36,27.84-.32,38.34-10.67,10.5-27.84,10.36-38.34-.32-10.5-10.67-10.36-27.84.31-38.34,10.68-10.49,27.84-10.35,38.34.31"/>
</svg>