<?xml version="1.0" encoding="UTF-8"?>
<svg xmlns="http://www.w3.org/2000/svg" xmlns:xlink="http://www.w3.org/1999/xlink" version="1.1" viewBox="0 0 1920 852.67">
  <defs>
    <style>
      .cls-1 {
        fill: none;
      }

      .cls-2 {
        fill: #192d58;
      }

      .cls-3 {
        fill: #b49252;
      }

      .cls-4 {
        fill: #fff;
      }

      .cls-5 {
        fill: #a87e3d;
      }

      .cls-6 {
        fill: #1f305f;
      }

      .cls-7 {
        clip-path: url(#clippath);
      }
    </style>
    <clipPath id="clippath">
      <rect class="cls-1" x="21.04" y="530.48" width="1879.78" height="48.52"/>
    </clipPath>
  </defs>
  <!-- Generator: Adobe Illustrator 28.7.0, SVG Export Plug-In . SVG Version: 1.2.0 Build 136)  -->
  <g>
    <g id="Layer_1">
      <g id="Group_7541">
        <g id="Group_7536">
          <g id="Group_7540">
            <g id="Group_7393">
              <g class="cls-7">
                <g id="Group_7069">
                  <path id="Path_14633" class="cls-2" d="M1889.18,578.99c-49.53,0-92.91-13.48-116.03-28.71-23.14,15.22-66.52,28.71-116.03,28.71s-92.91-13.48-116.03-28.71c-23.14,15.22-66.52,28.71-116.05,28.71s-92.89-13.48-116.03-28.73c-23.12,15.23-66.5,28.73-116.03,28.73s-92.89-13.48-116.03-28.73c-23.12,15.23-66.5,28.73-116.03,28.73s-92.91-13.48-116.03-28.71c-23.14,15.22-66.52,28.71-116.03,28.71s-92.91-13.48-116.03-28.73c-23.14,15.23-66.52,28.73-116.03,28.73s-92.91-13.48-116.03-28.73c-23.14,15.23-66.52,28.73-116.05,28.73s-92.89-13.5-116.01-28.71c-23.12,15.22-66.5,28.71-116.03,28.71-6.42,0-11.63-3.52-11.63-7.87s5.21-7.85,11.63-7.85c49.04,0,91.5-15.19,106.55-29.49,5.55-4.4,13.41-4.4,18.96,0,15.07,14.3,57.53,29.49,106.55,29.49s91.49-15.2,106.56-29.5c5.55-4.4,13.4-4.4,18.95,0,15.07,14.3,57.53,29.49,106.57,29.49s91.48-15.19,106.53-29.49c5.55-4.4,13.41-4.4,18.96,0,15.05,14.3,57.53,29.49,106.55,29.49s91.5-15.19,106.57-29.49c5.55-4.4,13.41-4.4,18.96,0,15.05,14.3,57.53,29.49,106.55,29.49s91.49-15.19,106.54-29.49c5.55-4.4,13.41-4.4,18.96,0,15.07,14.3,57.53,29.49,106.55,29.49s91.49-15.19,106.56-29.49c5.55-4.4,13.4-4.4,18.95,0,15.07,14.3,57.53,29.49,106.55,29.49s91.49-15.19,106.56-29.49c5.55-4.4,13.41-4.4,18.96,0,15.05,14.3,57.51,29.49,106.55,29.49s91.48-15.19,106.55-29.49c5.55-4.4,13.41-4.4,18.96,0,15.05,14.3,57.53,29.49,106.55,29.49,6.42,0,11.63,3.52,11.63,7.85s-5.21,7.87-11.63,7.87"/>
                </g>
              </g>
            </g>
            <path id="Path_15102" class="cls-3" d="M722.15,729.38c3.12-.1,6.2.72,8.86,2.36,2.54,1.81,3.92,4.83,3.63,7.93-.14,2.57-.56,5.12-1.27,7.6-.84,3.38-1.94,7.2-3.29,11.47-1.35,4.27-2.9,8.86-4.64,13.75-1.74,4.9-3.54,9.69-5.4,14.35-1.86,4.66-3.69,9.02-5.48,13.08-1.8,4.05-3.44,7.43-4.9,10.13-1.87,1.24-3.96,2.13-6.16,2.62-3.01.76-6.1,1.13-9.2,1.1-3.43.08-6.85-.44-10.11-1.52-2.57-.81-4.74-2.56-6.08-4.9-1.01-1.91-2.22-4.55-3.63-7.93-1.41-3.38-2.92-7.18-4.56-11.39-1.63-4.22-3.29-8.71-4.98-13.48-1.68-4.77-3.32-9.55-4.9-14.35-1.57-4.79-3.03-9.35-4.39-13.67-1.36-4.32-2.43-8.23-3.21-11.73,1.61-1.64,3.53-2.93,5.66-3.8,2.47-1.08,5.15-1.63,7.85-1.6,3.09-.14,6.15.66,8.78,2.28,2.62,2.1,4.41,5.06,5.06,8.35l7.42,26.66c1.36,4.73,2.71,9.37,4.05,13.92,1.34,4.55,2.35,8.13,3.04,10.72h.84c2.59-8.77,5.18-18.34,7.76-28.69,2.59-10.35,5.01-20.48,7.26-30.38,3.69-1.96,7.82-2.95,12-2.87ZM829.99,771.58c.09,6.13-.94,12.22-3.04,17.98-1.87,5.1-4.83,9.74-8.68,13.58-3.88,3.78-8.51,6.71-13.59,8.61-5.67,2.09-11.68,3.12-17.72,3.04-6.06.08-12.09-.92-17.8-2.95-5.12-1.83-9.78-4.73-13.67-8.52-3.85-3.84-6.82-8.48-8.69-13.59-2.11-5.81-3.13-11.96-3.04-18.14-.08-6.08.98-12.12,3.12-17.8,1.92-5.1,4.92-9.73,8.78-13.59,3.9-3.8,8.56-6.73,13.67-8.61,5.64-2.08,11.62-3.11,17.64-3.04,5.99-.08,11.95.95,17.57,3.04,5.09,1.9,9.73,4.86,13.59,8.69,3.82,3.88,6.79,8.51,8.72,13.59,2.15,5.66,3.21,11.67,3.13,17.72ZM786.96,748.79c-4.84-.22-9.46,2-12.32,5.9-3.23,5.01-4.77,10.93-4.39,16.88-.41,6.02,1.1,12.02,4.3,17.13,5.65,6.83,15.77,7.79,22.6,2.14.81-.67,1.55-1.41,2.21-2.22,3.18-5.09,4.69-11.05,4.3-17.04.35-5.92-1.18-11.8-4.39-16.79-2.83-3.95-7.46-6.21-12.32-5.99h0ZM860.54,813.43c-3.79.31-7.59-.54-10.89-2.45-2.53-2.49-3.75-6.02-3.29-9.53v-99.06c1.58-.44,3.19-.77,4.81-1.01,2.26-.35,4.55-.52,6.84-.51,3.78-.3,7.55.58,10.8,2.53,2.57,2.5,3.82,6.06,3.38,9.62v99.06c-1.61.41-3.25.72-4.9.93-2.24.29-4.49.44-6.75.42h0ZM989.81,729.39c3.12-.1,6.2.72,8.86,2.36,2.54,1.81,3.92,4.83,3.63,7.93-.14,2.57-.56,5.12-1.27,7.6-.84,3.38-1.94,7.2-3.29,11.47-1.35,4.27-2.9,8.86-4.64,13.75-1.74,4.9-3.54,9.69-5.4,14.35-1.86,4.66-3.69,9.02-5.48,13.08-1.8,4.05-3.44,7.43-4.9,10.13-1.87,1.24-3.96,2.13-6.16,2.62-3.01.76-6.1,1.13-9.2,1.1-3.44.08-6.86-.44-10.12-1.52-2.57-.81-4.74-2.56-6.08-4.9-1.01-1.91-2.22-4.55-3.63-7.93s-2.92-7.18-4.56-11.39c-1.63-4.22-3.29-8.71-4.98-13.48-1.68-4.77-3.32-9.55-4.9-14.35-1.57-4.79-3.03-9.35-4.4-13.67-1.36-4.32-2.43-8.23-3.21-11.73,1.61-1.64,3.53-2.93,5.66-3.8,2.47-1.08,5.15-1.63,7.85-1.6,3.09-.14,6.15.66,8.78,2.28,2.62,2.1,4.41,5.06,5.06,8.35l7.42,26.66c1.36,4.73,2.71,9.37,4.05,13.92,1.34,4.55,2.35,8.13,3.04,10.72h.84c2.59-8.77,5.18-18.34,7.76-28.69,2.59-10.35,5.01-20.48,7.26-30.38,3.69-1.97,7.82-2.95,12.01-2.87h0ZM1037.06,782.38c1.26,4.34,4.25,7.97,8.27,10.04,4.26,2.04,8.94,3.05,13.67,2.95,4.52.03,9.01-.62,13.33-1.94,3.54-1.02,6.94-2.47,10.13-4.3,1.71,1.14,3.15,2.64,4.22,4.39,1.12,1.77,1.7,3.82,1.69,5.9.04,2.46-.79,4.86-2.36,6.75-1.78,2.07-4,3.71-6.5,4.81-3.12,1.4-6.42,2.36-9.81,2.86-4.1.64-8.25.95-12.41.93-6.24.06-12.45-.88-18.39-2.78-5.37-1.71-10.31-4.53-14.51-8.27-4.16-3.82-7.42-8.52-9.53-13.75-2.43-6.18-3.61-12.77-3.46-19.41-.15-6.42,1.03-12.79,3.46-18.73,2.11-5.01,5.27-9.5,9.28-13.16,3.85-3.47,8.4-6.09,13.33-7.68,4.99-1.63,10.2-2.46,15.44-2.45,5.37-.06,10.72.82,15.78,2.62,4.55,1.61,8.74,4.11,12.32,7.36,3.44,3.16,6.17,7.01,8.02,11.31,1.94,4.53,2.91,9.42,2.86,14.34.23,2.98-.81,5.92-2.86,8.1-2.28,1.97-5.1,3.2-8.1,3.54l-43.87,6.59ZM1053.1,747.61c-4.45-.14-8.78,1.46-12.07,4.47-3.42,3.45-5.44,8.05-5.66,12.91l32.23-5.23c-.68-7.35-7.16-12.78-14.51-12.15h0ZM1132.59,812.08c-1.55.42-3.13.73-4.72.93-2.24.29-4.49.43-6.75.41-3.82.31-7.64-.55-10.97-2.45-2.58-2.46-3.84-6-3.38-9.53v-51.46c-.08-2.88.75-5.71,2.36-8.1,1.75-2.41,4-4.42,6.58-5.9,4.18-2.44,8.7-4.23,13.42-5.31,5.39-1.31,10.91-1.96,16.46-1.94,11.71,0,17.57,3.94,17.57,11.81.02,1.78-.26,3.55-.84,5.23-.48,1.41-1.11,2.76-1.86,4.05-3.11-.61-6.28-.89-9.45-.84-3.3,0-6.6.4-9.81,1.18-3,.69-5.89,1.77-8.61,3.21v58.72ZM1199.42,812.08c-1.55.42-3.13.73-4.72.93-2.24.29-4.49.43-6.75.41-3.82.31-7.64-.55-10.97-2.45-2.58-2.46-3.84-6-3.38-9.53v-51.46c-.08-2.88.75-5.71,2.36-8.1,1.75-2.41,4-4.42,6.58-5.9,4.18-2.44,8.7-4.23,13.42-5.31,5.39-1.31,10.91-1.96,16.46-1.94,11.71,0,17.57,3.94,17.57,11.81.02,1.78-.26,3.55-.84,5.23-.48,1.41-1.11,2.76-1.86,4.05-3.11-.61-6.28-.89-9.45-.84-3.3,0-6.6.4-9.81,1.18-3,.69-5.89,1.77-8.61,3.21v58.72ZM1273.49,795.88c2.47,0,4.94-.25,7.36-.76,1.93-.33,3.78-.98,5.48-1.94v-15.53l-13.84,1.18c-3.04.18-6.01,1.01-8.69,2.45-2.12,1.16-3.39,3.41-3.29,5.82-.09,2.5,1.04,4.9,3.04,6.41,2.98,1.83,6.46,2.65,9.95,2.36ZM1272.48,728.54c5.36-.05,10.72.54,15.94,1.77,4.4,1.01,8.56,2.87,12.23,5.48,3.36,2.45,6.05,5.7,7.85,9.45,1.94,4.23,2.89,8.84,2.78,13.48v38.14c.13,2.54-.68,5.03-2.28,7-1.57,1.78-3.42,3.29-5.48,4.47-3.98,2.33-8.31,3.99-12.83,4.9-5.66,1.19-11.43,1.75-17.22,1.69-9.67.49-19.28-1.83-27.68-6.66-6.86-4.42-10.79-12.2-10.29-20.34-.45-6.64,2.09-13.14,6.92-17.72,6.15-4.63,13.56-7.28,21.25-7.6l22.45-2.36v-1.86c.18-3.27-1.52-6.35-4.39-7.93-3.94-1.91-8.3-2.78-12.67-2.53-4.24,0-8.46.51-12.57,1.52-3.77.9-7.46,2.09-11.05,3.54-1.49-1.06-2.68-2.48-3.46-4.14-.96-1.85-1.45-3.91-1.43-5.99-.06-4.87,3.1-9.2,7.76-10.62,3.68-1.34,7.5-2.27,11.39-2.78,4.24-.61,8.51-.93,12.79-.93h0ZM1396.53,788.45c.33,7.63-3.15,14.94-9.28,19.49-6.19,4.67-15.3,7-27.34,7-4.32.03-8.64-.31-12.91-1.01-3.47-.55-6.85-1.57-10.04-3.04-2.56-1.15-4.81-2.89-6.58-5.06-1.57-2.02-2.41-4.53-2.36-7.09-.07-2.21.46-4.39,1.52-6.33.97-1.7,2.29-3.16,3.88-4.3,3.54,2.04,7.27,3.74,11.14,5.06,4.68,1.54,9.59,2.29,14.51,2.19,7.99,0,11.98-2.25,11.98-6.75.09-1.73-.7-3.38-2.11-4.39-2.21-1.33-4.64-2.24-7.17-2.7l-6.75-1.52c-7.51-1.14-14.6-4.19-20.59-8.86-4.64-4.31-7.11-10.47-6.75-16.79-.21-7.57,3.44-14.73,9.7-18.98,7.73-5.03,16.86-7.48,26.07-7,3.84-.02,7.68.29,11.47.93,3.21.5,6.33,1.43,9.28,2.78,2.37,1.07,4.47,2.66,6.16,4.64,1.51,1.83,2.32,4.13,2.28,6.5.04,2.08-.42,4.13-1.35,5.99-.85,1.68-2.06,3.15-3.54,4.3-1.26-.74-2.59-1.36-3.97-1.86-1.74-.68-3.63-1.29-5.66-1.86-2.11-.58-4.25-1.03-6.41-1.35-2.07-.32-4.15-.49-6.24-.51-3.15-.15-6.29.4-9.2,1.6-1.99.77-3.3,2.68-3.29,4.81-.05,1.47.65,2.87,1.86,3.71,2.08,1.23,4.37,2.09,6.75,2.53l6.41,1.52c8.06,1.24,15.64,4.62,21.94,9.81,4.41,4.34,6.8,10.33,6.57,16.52ZM1478.05,788.45c.33,7.63-3.15,14.94-9.28,19.49-6.19,4.67-15.3,7-27.34,7-4.32.03-8.64-.31-12.91-1.01-3.47-.55-6.85-1.57-10.04-3.04-2.56-1.15-4.81-2.89-6.58-5.06-1.57-2.02-2.41-4.53-2.36-7.09-.07-2.21.46-4.39,1.52-6.33.97-1.7,2.29-3.16,3.88-4.3,3.54,2.04,7.27,3.74,11.14,5.06,4.68,1.54,9.59,2.29,14.51,2.19,7.99,0,11.98-2.25,11.98-6.75.09-1.73-.7-3.38-2.11-4.39-2.21-1.33-4.64-2.24-7.17-2.7l-6.75-1.52c-7.51-1.14-14.6-4.19-20.59-8.86-4.64-4.31-7.11-10.47-6.75-16.79-.21-7.57,3.44-14.73,9.7-18.98,7.73-5.03,16.86-7.48,26.07-7,3.84-.02,7.68.29,11.47.93,3.21.5,6.33,1.43,9.28,2.78,2.37,1.07,4.47,2.66,6.16,4.64,1.51,1.83,2.32,4.13,2.28,6.5.04,2.08-.42,4.13-1.35,5.99-.85,1.68-2.06,3.15-3.54,4.3-1.26-.74-2.59-1.36-3.97-1.86-1.74-.68-3.63-1.29-5.66-1.86-2.11-.58-4.25-1.03-6.41-1.35-2.07-.32-4.15-.49-6.24-.51-3.15-.15-6.29.4-9.2,1.6-1.99.77-3.3,2.68-3.29,4.81-.05,1.47.65,2.87,1.86,3.71,2.08,1.23,4.37,2.09,6.75,2.53l6.41,1.52c8.06,1.24,15.64,4.62,21.94,9.81,4.41,4.34,6.8,10.33,6.58,16.52h0ZM1519.56,812.08c-1.55.42-3.13.73-4.72.93-2.24.29-4.49.43-6.75.41-3.79.31-7.59-.54-10.89-2.45-2.53-2.49-3.75-6.02-3.29-9.53v-69.35c1.55-.43,3.13-.77,4.72-1.01,2.23-.35,4.49-.52,6.75-.51,3.8-.32,7.61.56,10.89,2.53,2.52,2.53,3.73,6.08,3.29,9.62v69.37ZM1492.39,707.78c-.07-3.67,1.36-7.22,3.97-9.81,5.87-5.4,14.89-5.4,20.76,0,2.6,2.59,4.04,6.13,3.97,9.81.09,3.72-1.35,7.32-3.97,9.96-5.87,5.4-14.89,5.4-20.76,0-2.62-2.64-4.06-6.24-3.97-9.96h0ZM1591.8,760.44c.26-3.32-1.05-6.57-3.54-8.78-2.72-2.02-6.06-3.04-9.45-2.86-2.51-.03-5.01.32-7.42,1.01-2.16.64-4.25,1.49-6.24,2.53v59.74c-1.55.42-3.13.73-4.72.93-2.24.29-4.49.43-6.75.41-3.82.31-7.64-.55-10.97-2.45-2.58-2.46-3.84-6-3.38-9.53v-52.12c-.13-2.5.51-4.98,1.83-7.11,1.43-1.99,3.2-3.7,5.23-5.06,4.24-2.88,8.95-4.99,13.92-6.24,6.13-1.63,12.45-2.43,18.8-2.36,12.26,0,21.74,2.7,28.44,8.1,6.82,5.68,10.55,14.26,10.04,23.12v52.3c-1.61.41-3.25.72-4.9.93-2.24.29-4.49.43-6.75.41-3.79.31-7.59-.54-10.89-2.45-2.53-2.49-3.75-6.02-3.29-9.53l.05-40.98ZM1687.65,805.67c-2.44,1.08-4.98,1.9-7.59,2.45-3.16.65-6.39.96-9.62.93-4.89.03-9.75-.68-14.43-2.11-4.44-1.34-8.51-3.68-11.9-6.84-3.58-3.46-6.34-7.66-8.1-12.32-2.18-5.94-3.21-12.24-3.04-18.56-.12-6,.91-11.96,3.04-17.57,1.88-4.86,4.86-9.22,8.69-12.74,3.9-3.51,8.49-6.15,13.48-7.76,5.64-1.81,11.54-2.69,17.47-2.62,5.86-.06,11.69.76,17.3,2.45,4.3,1.22,8.41,3,12.23,5.31,1.99,1.32,3.71,3.01,5.06,4.98,1.3,2.1,1.95,4.54,1.86,7v63.62c.13,5.24-.97,10.45-3.21,15.19-2.06,4.18-5.1,7.8-8.86,10.55-3.99,2.86-8.49,4.95-13.25,6.16-5.34,1.39-10.85,2.08-16.37,2.04-5.3.08-10.59-.43-15.78-1.52-3.7-.73-7.26-2.04-10.55-3.88-3.64-2.37-5.8-6.45-5.72-10.8-.02-2.26.5-4.49,1.52-6.5.78-1.68,1.93-3.15,3.38-4.3,3.45,1.93,7.1,3.49,10.89,4.64,4.23,1.31,8.64,1.97,13.08,1.94,5.18.26,10.34-.87,14.94-3.29,3.72-2.31,5.84-6.52,5.48-10.89v-5.57ZM1674.98,789.63c2.37.05,4.74-.29,7-1.01,1.89-.64,3.68-1.55,5.31-2.7v-34.59c-1.36-.56-2.85-1.13-4.47-1.69-1.99-.61-4.07-.9-6.16-.84-4.86-.21-9.59,1.59-13.08,4.98-3.67,4.33-5.46,9.95-4.98,15.61-.08,3.25.35,6.5,1.27,9.62.69,2.31,1.87,4.44,3.46,6.24,1.41,1.54,3.18,2.7,5.15,3.38,2.09.7,4.29,1.04,6.5,1.01h0ZM1753.12,782.38c1.26,4.34,4.25,7.97,8.27,10.04,4.26,2.04,8.94,3.05,13.67,2.95,4.52.03,9.01-.62,13.33-1.94,3.54-1.02,6.94-2.47,10.13-4.3,1.71,1.14,3.15,2.64,4.22,4.39,1.12,1.77,1.7,3.82,1.69,5.9.04,2.46-.79,4.86-2.36,6.75-1.78,2.07-4,3.71-6.5,4.81-3.12,1.4-6.42,2.36-9.81,2.86-4.1.64-8.25.95-12.41.93-6.24.06-12.45-.88-18.39-2.78-5.37-1.71-10.31-4.53-14.51-8.27-4.16-3.82-7.42-8.52-9.53-13.75-2.43-6.18-3.61-12.77-3.46-19.41-.15-6.42,1.03-12.79,3.46-18.73,2.11-5.01,5.27-9.5,9.28-13.16,3.85-3.47,8.4-6.09,13.33-7.68,4.99-1.63,10.2-2.46,15.44-2.45,5.37-.06,10.72.82,15.78,2.62,4.55,1.61,8.74,4.11,12.32,7.36,3.44,3.16,6.17,7.01,8.02,11.31,1.94,4.53,2.91,9.42,2.86,14.34.23,2.98-.81,5.92-2.86,8.1-2.28,1.97-5.1,3.2-8.1,3.54l-43.87,6.59ZM1769.15,747.61c-4.45-.14-8.78,1.46-12.07,4.47-3.42,3.45-5.44,8.05-5.66,12.91l32.23-5.23c-.68-7.35-7.16-12.78-14.51-12.15h0ZM1875.31,760.44c.26-3.32-1.05-6.57-3.54-8.78-2.72-2.02-6.06-3.04-9.45-2.86-2.51-.03-5.01.32-7.42,1.01-2.16.64-4.25,1.49-6.24,2.53v59.74c-1.55.42-3.13.73-4.72.93-2.24.29-4.49.43-6.75.41-3.82.31-7.64-.55-10.97-2.45-2.58-2.46-3.84-6-3.38-9.53v-52.12c-.12-2.5.53-4.97,1.86-7.09,1.43-1.99,3.2-3.7,5.23-5.06,4.24-2.88,8.95-4.99,13.92-6.24,6.13-1.63,12.45-2.43,18.8-2.36,12.26,0,21.74,2.7,28.44,8.1,6.82,5.68,10.55,14.26,10.04,23.12v52.3c-1.61.41-3.25.72-4.9.93-2.24.29-4.49.43-6.75.41-3.79.31-7.59-.54-10.89-2.45-2.53-2.49-3.75-6.02-3.29-9.53l.03-41Z"/>
            <g id="Group_7478">
              <path id="Path_15066" class="cls-6" d="M692.45,143.51c.11,5.76-1.57,11.4-4.8,16.17-2.92,4.4-6.73,8.14-11.18,10.98-7.16-4.64-14.71-8.65-22.56-11.97-9.2-3.66-19.05-5.43-28.96-5.2-21.3,0-37.94,6.72-49.92,20.17-11.98,13.45-17.97,32.55-17.98,57.3,0,25.56,6.32,44.79,18.97,57.71,12.65,12.91,30.02,19.37,52.12,19.37,9.98.24,19.92-1.32,29.34-4.59,7.85-2.93,15.41-6.61,22.56-10.98,4.09,3.32,7.43,7.47,9.78,12.18,2.58,5.14,3.88,10.82,3.8,16.57.01,5.28-1.44,10.47-4.2,14.97-3.56,5.3-8.64,9.41-14.57,11.78-6.91,3.21-14.14,5.69-21.57,7.39-11,2.47-22.26,3.61-33.53,3.4-16.94.14-33.79-2.42-49.92-7.58-14.94-4.76-28.69-12.66-40.33-23.17-11.9-11.02-21.12-24.61-26.97-39.73-6.92-18.29-10.25-37.75-9.81-57.3-.35-18.83,2.98-37.55,9.81-55.11,5.94-15.1,14.99-28.77,26.56-40.14,11.21-10.8,24.54-19.16,39.14-24.56,15.34-5.67,31.57-8.51,47.92-8.39,24.22,0,42.99,3.86,56.31,11.58,13.32,7.72,19.97,17.44,19.97,29.15"/>
              <path id="Path_15067" class="cls-6" d="M796.66,153.89c12.7-.13,25.37,1.28,37.74,4.19,10.41,2.39,20.24,6.8,28.95,12.98,7.94,5.81,14.32,13.49,18.57,22.37,4.59,10.01,6.84,20.93,6.58,31.94v90.25c.31,6-1.61,11.9-5.39,16.57-3.71,4.22-8.09,7.8-12.97,10.59-9.41,5.51-19.66,9.42-30.35,11.58-13.39,2.8-27.05,4.14-40.74,3.99-27.42,0-49.25-5.26-65.5-15.78-16.24-10.52-24.35-26.56-24.34-48.12,0-18.37,5.46-32.35,16.37-41.93,10.91-9.58,27.68-15.58,50.31-17.98l53.12-5.59v-4.38c.44-7.73-3.6-15.03-10.39-18.77-9.31-4.51-19.62-6.57-29.95-5.99-10.03-.02-20.02,1.19-29.75,3.59-8.92,2.14-17.66,4.94-26.15,8.39-3.52-2.52-6.33-5.9-8.17-9.81-2.26-4.38-3.42-9.25-3.39-14.18,0-11.71,6.13-20.1,18.39-25.15,8.72-3.18,17.77-5.39,26.97-6.59,9.96-1.44,20.02-2.17,30.08-2.18M799.05,313.23c5.84,0,11.66-.6,17.37-1.8,4.56-.77,8.95-2.32,12.98-4.59v-36.74l-32.74,2.8c-7.19.41-14.21,2.39-20.57,5.79-5.01,2.73-8.03,8.07-7.79,13.77-.22,5.92,2.46,11.59,7.18,15.17,4.8,3.73,12.66,5.59,23.57,5.59"/>
              <path id="Path_15068" class="cls-6" d="M1080.6,295.65c.78,18.07-7.45,35.35-21.97,46.13-14.63,11.04-36.19,16.56-64.69,16.57-10.23.07-20.45-.73-30.55-2.39-8.21-1.3-16.21-3.72-23.76-7.19-6.05-2.73-11.39-6.83-15.57-11.98-3.72-4.78-5.7-10.69-5.59-16.75-.16-5.22,1.08-10.39,3.59-14.98,2.3-4.01,5.43-7.48,9.19-10.18,8.38,4.83,17.21,8.84,26.36,11.98,11.07,3.65,22.67,5.4,34.32,5.19,18.9,0,28.35-5.32,28.36-15.97.21-4.08-1.67-8-4.99-10.39-5.23-3.13-10.98-5.3-16.97-6.39l-15.98-3.59c-21.83-4.53-38.07-11.52-48.72-20.97-10.65-9.45-15.97-22.69-15.97-39.73-.52-17.92,8.13-34.86,22.95-44.95,15.3-11.05,35.87-16.57,61.7-16.57,9.1-.04,18.18.7,27.16,2.2,7.59,1.18,14.98,3.4,21.96,6.59,5.61,2.54,10.59,6.29,14.57,10.98,3.57,4.32,5.49,9.77,5.4,15.38.09,4.92-1.01,9.78-3.2,14.18-2,3.97-4.86,7.45-8.38,10.18-3-1.74-6.14-3.21-9.4-4.39-4.12-1.6-8.58-3.06-13.37-4.39-4.99-1.37-10.06-2.44-15.18-3.2-4.89-.76-9.83-1.16-14.78-1.19-7.44-.35-14.87.94-21.76,3.79-4.7,1.81-7.8,6.34-7.79,11.38-.12,3.48,1.53,6.79,4.4,8.78,4.93,2.93,10.34,4.96,15.98,5.99l15.17,3.59c24.22,5.33,41.52,13.05,51.9,23.17,10.45,10.28,16.1,24.48,15.57,39.13"/>
              <path id="Path_15069" class="cls-6" d="M1213.16,202.21c-13.56-.31-26.73,4.63-36.74,13.77-10.12,9.18-15.18,22.69-15.18,40.53s4.86,31.15,14.58,39.94c10.17,8.96,23.39,13.67,36.94,13.18,7.66.13,15.28-1.02,22.56-3.4,5.69-1.91,11.24-4.25,16.58-6.99,4.12,3.04,7.69,6.75,10.58,10.98,2.63,4.25,3.95,9.18,3.79,14.18,0,10.12-5.32,18.24-15.97,24.36-10.65,6.12-25.42,9.19-44.33,9.19-14.82.17-29.57-1.99-43.72-6.39-12.5-3.87-24.02-10.41-33.74-19.17-9.52-8.8-16.89-19.66-21.57-31.75-5.32-14.09-7.9-29.07-7.59-44.13-.35-15.46,2.51-30.82,8.4-45.11,5.16-12.18,12.93-23.08,22.76-31.94,9.75-8.62,21.17-15.14,33.54-19.17,13.01-4.29,26.63-6.45,40.34-6.39,18.37,0,32.81,3.33,43.31,9.98,10.51,6.65,15.76,15.04,15.77,25.16.05,4.61-1.12,9.16-3.39,13.18-2.16,3.87-4.92,7.37-8.17,10.39-5.42-2.93-11.1-5.34-16.97-7.19-7.04-2.2-14.39-3.28-21.76-3.2"/>
              <path id="Path_15070" class="cls-6" d="M1370.9,153.89c12.7-.13,25.37,1.28,37.74,4.19,10.41,2.39,20.24,6.8,28.95,12.98,7.94,5.81,14.32,13.49,18.57,22.37,4.6,10.01,6.85,20.93,6.59,31.94v90.25c.31,6-1.61,11.9-5.39,16.57-3.71,4.22-8.1,7.8-12.98,10.59-9.41,5.51-19.66,9.42-30.35,11.58-13.39,2.8-27.05,4.14-40.73,3.99-27.43,0-49.26-5.26-65.5-15.78-16.24-10.52-24.35-26.56-24.35-48.12,0-18.37,5.46-32.35,16.37-41.93,10.91-9.58,27.68-15.58,50.31-17.98l53.12-5.59v-4.38c.43-7.73-3.6-15.03-10.38-18.77-9.31-4.51-19.62-6.57-29.95-5.99-10.03-.01-20.02,1.19-29.76,3.59-8.92,2.14-17.66,4.94-26.15,8.39-3.52-2.51-6.33-5.89-8.17-9.81-2.27-4.38-3.43-9.25-3.4-14.18,0-11.71,6.13-20.1,18.39-25.15,8.72-3.18,17.77-5.39,26.97-6.59,9.99-1.44,20.06-2.18,30.15-2.2M1373.34,313.21c5.84,0,11.66-.6,17.37-1.8,4.56-.77,8.95-2.32,12.97-4.59v-36.72l-32.74,2.8c-7.19.42-14.21,2.39-20.57,5.79-5.01,2.73-8.03,8.07-7.79,13.77-.22,5.93,2.46,11.59,7.19,15.17,4.78,3.73,12.64,5.59,23.56,5.59"/>
              <path id="Path_15071" class="cls-6" d="M1589.33,153.89c5.82-.03,11.63.44,17.37,1.39,5.09.84,10.1,2.11,14.97,3.8v-67.09c2.93-.8,6.8-1.59,11.58-2.39,5.28-.84,10.63-1.24,15.97-1.2,11.99,0,20.57,2,25.74,5.99s7.77,11.58,7.79,22.76v194.47c.18,5.66-1.2,11.25-4,16.17-3.27,4.98-7.64,9.15-12.78,12.18-20.99,12.11-44.86,18.33-69.09,17.98-33.55,0-59.97-8.45-79.27-25.36-19.3-16.91-28.96-42.27-28.96-76.07-.37-15.53,2.27-30.99,7.76-45.53,4.72-12.07,12.01-22.98,21.37-31.95,9.14-8.57,20.04-15.04,31.95-18.96,12.75-4.21,26.1-6.3,39.53-6.19M1622.03,207.8c-3.68-1.68-7.48-3.08-11.38-4.19-4.22-1.21-8.59-1.82-12.98-1.8-12.79-.62-25.26,4.16-34.35,13.18-8.52,8.79-12.78,22.77-12.78,41.93s4.06,31.75,12.18,40.13c8.12,8.39,19.37,12.58,33.74,12.58,5.05.07,10.09-.54,14.98-1.8,3.7-.91,7.26-2.33,10.58-4.2v-95.83Z"/>
              <path id="Path_15072" class="cls-6" d="M1771.03,281.28c2.97,10.28,10.05,18.87,19.57,23.76,10.08,4.83,21.16,7.23,32.34,6.99,10.69.07,21.32-1.48,31.55-4.6,8.37-2.42,16.42-5.83,23.97-10.18,4.03,2.71,7.43,6.25,9.98,10.38,2.63,4.18,4.02,9.03,3.99,13.98.11,5.82-1.88,11.49-5.59,15.97-4.21,4.89-9.47,8.78-15.38,11.38-7.37,3.31-15.16,5.6-23.16,6.79-9.71,1.52-19.52,2.26-29.35,2.2-14.77.14-29.46-2.08-43.52-6.58-12.69-4.04-24.38-10.71-34.32-19.57-9.85-9.03-17.56-20.15-22.56-32.55-5.74-14.61-8.52-30.22-8.17-45.92-.35-15.18,2.43-30.27,8.17-44.32,4.99-11.85,12.48-22.48,21.97-31.15,9.12-8.21,19.87-14.41,31.55-18.17,11.8-3.85,24.13-5.8,36.54-5.79,12.71-.14,25.35,1.95,37.34,6.19,10.77,3.8,20.68,9.71,29.15,17.37,8.14,7.48,14.6,16.6,18.97,26.76,4.59,10.72,6.9,22.28,6.78,33.94.54,7.06-1.92,14.02-6.78,19.17-5.4,4.66-12.08,7.58-19.17,8.39l-103.85,15.57ZM1808.97,199.01c-10.53-.34-20.78,3.46-28.55,10.58-8.1,8.17-12.87,19.06-13.38,30.55l76.28-12.38c-.74-7.38-3.98-14.28-9.19-19.57-5.58-6.12-13.97-9.18-25.15-9.19"/>
              <path id="Path_15073" class="cls-3" d="M347.95,80.8c-.16.16-.32.32-.49.48l-34.95,34.38c-21.75-18.62-48.73-30.07-77.23-32.78l.36-48.98c-.04-6.8-5.58-12.28-12.38-12.24-6.65.04-12.07,5.35-12.23,12l-.41,49.04c-28.54,2.25-55.7,13.24-77.78,31.46l-34.39-34.95c-4.62-4.98-12.41-5.27-17.39-.65-4.88,4.53-5.27,12.11-.89,17.12.09.1.18.2.28.29s.3.31.46.47l34.39,34.94c-18.62,21.77-30.06,48.76-32.76,77.27l-49.04-.41c-6.81-.06-12.39,5.41-12.45,12.22-.06,6.81,5.41,12.39,12.22,12.45l49.04.41c2.24,28.55,13.24,55.71,31.5,77.77l-34.95,34.38c-5.04,4.57-5.42,12.35-.85,17.39,4.57,5.04,12.35,5.42,17.39.85.15-.13.29-.27.43-.41.09-.08.17-.16.25-.25l34.98-34.41c21.76,18.62,48.73,30.07,77.23,32.8l-.41,49.04c-.05,6.81,5.44,12.37,12.25,12.41,6.81.05,12.37-5.44,12.41-12.25l.41-49.04c28.55-2.22,55.72-13.21,77.79-31.46l34.38,34.95c4.75,4.85,12.54,4.93,17.39.18,4.69-4.59,4.95-12.05.59-16.96l-.46-.47-34.38-34.95c18.59-21.78,30.03-48.76,32.75-77.26l49.04.38c6.79.25,12.5-5.06,12.74-11.85.25-6.79-5.06-12.5-11.85-12.74-.14,0-.27,0-.41,0h-.3l-48.99-.44c-2.24-28.54-13.23-55.7-31.48-77.77l34.94-34.38c5.27-4.31,6.06-12.07,1.75-17.35-4.31-5.27-12.07-6.06-17.35-1.75-.23.19-.45.38-.66.58-.18.15-.35.31-.52.48"/>
              <path id="Path_15074" class="cls-4" d="M304.29,191.57c-5.42,2.04-8.49,7.79-7.17,13.44,4.94,21.97.02,45-13.46,63.04l-61.93-62.96,22.47-22.09c4.52-4.61,4.44-12-.16-16.52-4.49-4.4-11.65-4.46-16.21-.14l-22.47,22.1-18.9-19.21c3.17-12.15-4.1-24.58-16.26-27.75-12.15-3.17-24.58,4.1-27.75,16.26-3.17,12.15,4.1,24.58,16.26,27.75,3.64.95,7.45.98,11.1.1l18.9,19.21-22.2,21.83c-4.6,4.52-4.66,11.92-.13,16.52,4.52,4.6,11.92,4.66,16.52.13l22.19-21.83,61.92,62.97c-18.08,13.05-40.92,17.63-62.63,12.57-5.6-1.35-11.33,1.62-13.45,6.98h0c-2.3,5.94.65,12.62,6.59,14.92.51.2,1.04.36,1.58.48,53.79,12.63,107.63-20.74,120.26-74.52,3.47-14.76,3.53-30.11.19-44.9-1.36-6.23-7.52-10.17-13.75-8.81-.51.11-1.01.26-1.5.44"/>
              <path id="Path_15075" class="cls-5" d="M171.71,156.39c3.95,4,3.9,10.45-.1,14.39-4,3.95-10.45,3.9-14.39-.1-3.95-4-3.9-10.45.1-14.39,0,0,.01,0,.02-.01,4.01-3.94,10.45-3.89,14.4.12"/>
              <rect id="Rectangle_3784" class="cls-1" x="21.04" y="21.48" width="1879.78" height="401.43"/>
            </g>
          </g>
        </g>
        <path id="Path_15103" class="cls-6" d="M92.93,759.76c.16-6.32-.96-12.6-3.29-18.48-1.98-4.82-5.04-9.12-8.94-12.57-3.83-3.3-8.32-5.75-13.16-7.18-5.23-1.55-10.66-2.32-16.12-2.28-3.6,0-6.72.11-9.37.34-2.47.2-4.92.54-7.36,1.01v80.34c2.85.7,5.76,1.15,8.69,1.35,3.09.23,6.27.34,9.53.34,13.28,0,23.26-3.6,29.96-10.8,6.7-7.2,10.05-17.89,10.05-32.07ZM106.94,759.76c.17,8.18-1.11,16.32-3.8,24.05-2.27,6.4-5.96,12.2-10.8,16.96-4.82,4.59-10.62,8.02-16.96,10.04-7.2,2.28-14.72,3.39-22.28,3.29-3.6,0-7.65-.14-12.15-.41-4.35-.25-8.66-1.02-12.83-2.28-4.73-1.46-7.09-4.05-7.09-7.76v-86.75c-.1-1.5.38-2.98,1.35-4.14,1.19-1.11,2.65-1.89,4.23-2.26,3.84-1.19,7.8-1.93,11.81-2.19,4.39-.34,8.78-.51,13.16-.51,7.64-.09,15.24,1.02,22.53,3.29,6.45,2,12.4,5.34,17.47,9.81,4.94,4.47,8.8,10,11.3,16.17,2.84,7.22,4.22,14.94,4.06,22.7h-.01ZM138.67,781.19c3.04,14.74,12.71,22.11,29.01,22.11,4.39.06,8.75-.74,12.83-2.36,3.26-1.26,6.33-2.96,9.11-5.06,2.46,1.19,4.03,3.68,4.05,6.41-.07,1.74-.83,3.38-2.11,4.56-1.65,1.63-3.59,2.95-5.72,3.88-2.7,1.22-5.53,2.12-8.44,2.7-3.42.7-6.89,1.04-10.38,1.01-11.31.62-22.42-3.19-30.97-10.62-7.6-7.08-11.39-17.43-11.39-31.06-.1-5.83.84-11.63,2.78-17.13,1.69-4.73,4.33-9.07,7.76-12.74,3.34-3.5,7.4-6.24,11.9-8.02,4.78-1.89,9.88-2.83,15.02-2.78,4.79-.05,9.54.8,14,2.52,4.14,1.6,7.9,4.04,11.05,7.17,3.12,3.14,5.59,6.87,7.26,10.97,1.78,4.42,2.67,9.15,2.62,13.92.19,1.93-.42,3.85-1.69,5.31-1.32,1.15-2.98,1.83-4.72,1.94l-51.98,7.27ZM161.96,743.05c-6.45-.17-12.66,2.44-17.04,7.17-4.84,5.71-7.37,13.02-7.09,20.51l46.41-6.41c-.35-5.69-2.64-11.08-6.5-15.27-4.17-4.15-9.91-6.33-15.79-5.99h0ZM308.79,732.76c1.68-.08,3.33.46,4.64,1.52,1.23,1.12,1.88,2.73,1.77,4.39-.19,2.21-.64,4.39-1.35,6.5-.9,3.09-2.08,6.75-3.54,10.97-1.46,4.22-3.12,8.86-4.98,13.92-1.86,5.06-3.82,10.1-5.9,15.12-2.08,5.02-4.17,9.82-6.26,14.41-2.08,4.61-4.02,8.61-5.82,11.98-.89.59-1.9.99-2.95,1.18-1.46.34-2.97.51-4.47.51-4.16,0-6.86-1.18-8.1-3.54-1.01-1.91-2.31-4.55-3.88-7.93-1.57-3.38-3.26-7.21-5.06-11.47-1.8-4.27-3.65-8.82-5.55-13.66-1.91-4.84-3.76-9.65-5.57-14.43-1.81-4.78-3.5-9.39-5.08-13.84-1.57-4.45-2.87-8.41-3.88-11.9.82-1.16,1.93-2.09,3.21-2.7,1.25-.65,2.64-1,4.05-1.01,1.69-.12,3.35.43,4.64,1.52,1.34,1.46,2.34,3.18,2.95,5.06l10.46,30.21c.68,1.91,1.52,4.24,2.53,7,1.01,2.76,2.05,5.58,3.12,8.44,1.07,2.87,2.14,5.65,3.21,8.35,1.07,2.7,1.94,5.01,2.62,6.92h.67c4.5-11.36,8.69-22.56,12.57-33.59,3.88-11.03,7.29-21.88,10.22-32.57,1.75-.97,3.73-1.43,5.73-1.34h0ZM348.79,811.91c-.83.31-1.67.56-2.53.76-1.22.29-2.46.42-3.71.41-4.84,0-7.26-2.03-7.26-6.08v-104.11c.85-.31,1.73-.57,2.62-.76,1.19-.28,2.41-.41,3.63-.41,4.84,0,7.26,2.03,7.26,6.08v104.11ZM447.85,773.26c.08,5.79-.83,11.56-2.7,17.04-1.65,4.81-4.26,9.23-7.68,12.99-3.35,3.62-7.48,6.45-12.07,8.27-10.23,3.82-21.5,3.82-31.73,0-4.61-1.83-8.76-4.66-12.15-8.27-3.46-3.75-6.11-8.17-7.76-12.99-1.87-5.48-2.78-11.25-2.7-17.04-.08-5.8.86-11.57,2.78-17.04,1.71-4.82,4.38-9.24,7.85-12.99,3.4-3.61,7.54-6.44,12.15-8.27,10.11-3.83,21.28-3.83,31.39,0,4.59,1.82,8.71,4.65,12.07,8.27,3.42,3.77,6.06,8.19,7.76,12.99,1.92,5.47,2.87,11.25,2.78,17.05h0ZM409.54,743.22c-6.93-.32-13.61,2.61-18.06,7.93-4.73,6.36-7.06,14.19-6.58,22.11-.5,7.93,1.8,15.79,6.5,22.19,4.49,5.31,11.2,8.21,18.14,7.85,6.94.37,13.64-2.57,18.06-7.93,4.62-6.41,6.89-14.22,6.41-22.11.48-7.9-1.82-15.72-6.5-22.11-4.41-5.33-11.07-8.27-17.98-7.93h0ZM541.18,773.26c.08,5.79-.83,11.56-2.7,17.04-1.65,4.81-4.26,9.23-7.68,12.99-3.35,3.62-7.48,6.45-12.07,8.27-10.23,3.82-21.5,3.82-31.73,0-4.61-1.83-8.76-4.66-12.15-8.27-3.46-3.75-6.11-8.17-7.76-12.99-1.87-5.48-2.78-11.25-2.7-17.04-.08-5.8.86-11.57,2.78-17.04,1.71-4.82,4.38-9.24,7.85-12.99,3.4-3.61,7.54-6.44,12.15-8.27,10.11-3.83,21.28-3.83,31.39,0,4.59,1.82,8.71,4.65,12.07,8.27,3.42,3.77,6.06,8.19,7.76,12.99,1.92,5.47,2.87,11.25,2.78,17.05h0ZM502.87,743.22c-6.93-.32-13.61,2.61-18.06,7.93-4.73,6.36-7.06,14.19-6.58,22.11-.5,7.93,1.8,15.79,6.5,22.19,4.49,5.31,11.2,8.21,18.14,7.85,6.94.37,13.64-2.57,18.06-7.93,4.62-6.41,6.89-14.22,6.41-22.11.48-7.9-1.82-15.72-6.5-22.11-4.41-5.33-11.07-8.27-17.98-7.93h0ZM588.77,814.44c-6.78.31-13.48-1.52-19.16-5.23-5.22-4.19-7.99-10.72-7.36-17.38v-80.16c.85-.31,1.73-.57,2.62-.76,1.25-.28,2.52-.42,3.8-.41,4.73,0,7.09,2.03,7.09,6.08v19.41h27.68c.41.73.75,1.49,1.01,2.28.35,1,.52,2.06.51,3.12,0,3.81-1.69,5.72-5.06,5.72h-24.13v43.89c-.38,3.61,1.04,7.17,3.8,9.53,3.19,2.04,6.94,3.01,10.72,2.78,2.17-.04,4.33-.38,6.41-1.01,2.07-.55,4.06-1.35,5.93-2.37.73.75,1.36,1.6,1.86,2.53.58,1.09.87,2.31.84,3.54-.15,2.71-1.86,5.08-4.39,6.08-3.8,1.76-7.98,2.57-12.16,2.37h0Z"/>
      </g>
    </g>
  </g>
</svg>